<svg xmlns="http://www.w3.org/2000/svg" width="32" height="32" viewBox="0 0 32 32" fill="none">
  <rect width="32" height="32" rx="6" fill="#3B82F6"/>
  <path d="M16 8C11.6 8 8 11.6 8 16C8 20.4 11.6 24 16 24C20.4 24 24 20.4 24 16C24 11.6 20.4 8 16 8ZM16 22C12.7 22 10 19.3 10 16C10 12.7 12.7 10 16 10C19.3 10 22 12.7 22 16C22 19.3 19.3 22 16 22Z" fill="white"/>
  <circle cx="16" cy="16" r="3" fill="white"/>
  <path d="M16 6V2M16 30V26M26 16H30M2 16H6" stroke="white" stroke-width="2" stroke-linecap="round"/>
</svg>